<svg width="505" height="58" viewBox="0 0 505 58" fill="none" xmlns="http://www.w3.org/2000/svg">
<rect width="505" height="58" rx="12" fill="#FCFCFC"/>
<path d="M24.8693 24.3153V22.9091H34.6875V24.3153H30.571V36H28.9858V24.3153H24.8693ZM36.6501 39.6818C36.3944 39.6818 36.1664 39.6605 35.9662 39.6179C35.7659 39.5795 35.6274 39.5412 35.5507 39.5028L35.9342 38.1733C36.3007 38.267 36.6245 38.3011 36.9058 38.2756C37.187 38.25 37.4363 38.1243 37.6537 37.8984C37.8752 37.6768 38.0777 37.3168 38.2609 36.8182L38.5421 36.0511L34.9115 26.1818H36.5478L39.2581 34.0057H39.3603L42.0706 26.1818H43.7069L39.5393 37.4318C39.3518 37.9389 39.1196 38.3587 38.8426 38.6911C38.5656 39.0277 38.2439 39.277 37.8774 39.4389C37.5152 39.6009 37.1061 39.6818 36.6501 39.6818ZM45.572 39.6818V26.1818H47.0294V27.7415H47.2084C47.3192 27.571 47.4726 27.3537 47.6686 27.0895C47.8689 26.821 48.1544 26.5824 48.5252 26.3736C48.9002 26.1605 49.4073 26.054 50.0465 26.054C50.8732 26.054 51.6019 26.2607 52.2326 26.674C52.8632 27.0874 53.3554 27.6733 53.7091 28.4318C54.0628 29.1903 54.2397 30.0852 54.2397 31.1165C54.2397 32.1562 54.0628 33.0575 53.7091 33.8203C53.3554 34.5788 52.8654 35.1669 52.2389 35.5845C51.6125 35.9979 50.8902 36.2045 50.072 36.2045C49.4414 36.2045 48.9364 36.1001 48.5571 35.8913C48.1779 35.6783 47.886 35.4375 47.6814 35.169C47.4769 34.8963 47.3192 34.6705 47.2084 34.4915H47.0806V39.6818H45.572ZM47.055 31.0909C47.055 31.8324 47.1637 32.4865 47.381 33.0533C47.5983 33.6158 47.9158 34.0568 48.3334 34.3764C48.751 34.6918 49.2624 34.8494 49.8675 34.8494C50.4982 34.8494 51.0245 34.6832 51.4463 34.3509C51.8725 34.0142 52.1921 33.5625 52.4051 32.9957C52.6225 32.4247 52.7311 31.7898 52.7311 31.0909C52.7311 30.4006 52.6246 29.7784 52.4115 29.2244C52.2027 28.6662 51.8853 28.2251 51.4591 27.9013C51.0372 27.5732 50.5067 27.4091 49.8675 27.4091C49.2539 27.4091 48.7382 27.5646 48.3206 27.8757C47.903 28.1825 47.5877 28.6129 47.3746 29.1669C47.1615 29.7166 47.055 30.358 47.055 31.0909ZM60.5313 36.2045C59.5852 36.2045 58.7692 35.9957 58.0831 35.5781C57.4013 35.1562 56.875 34.5682 56.5043 33.8139C56.1378 33.0554 55.9546 32.1733 55.9546 31.1676C55.9546 30.1619 56.1378 29.2756 56.5043 28.5085C56.875 27.7372 57.3906 27.1364 58.0512 26.706C58.7159 26.2713 59.4915 26.054 60.3779 26.054C60.8892 26.054 61.3942 26.1392 61.8928 26.3097C62.3914 26.4801 62.8452 26.7571 63.2543 27.1406C63.6634 27.5199 63.9894 28.0227 64.2323 28.6491C64.4752 29.2756 64.5966 30.0469 64.5966 30.9631V31.6023H57.0284V30.2983H63.0625C63.0625 29.7443 62.9517 29.25 62.7301 28.8153C62.5128 28.3807 62.2017 28.0376 61.7969 27.7862C61.3963 27.5348 60.9233 27.4091 60.3779 27.4091C59.777 27.4091 59.2571 27.5582 58.8182 27.8565C58.3835 28.1506 58.049 28.5341 57.8146 29.0071C57.5803 29.4801 57.4631 29.9872 57.4631 30.5284V31.3977C57.4631 32.1392 57.5909 32.7678 57.8466 33.2834C58.1066 33.7947 58.4666 34.1847 58.9269 34.4531C59.3871 34.7173 59.9219 34.8494 60.5313 34.8494C60.9276 34.8494 61.2855 34.794 61.6051 34.6832C61.929 34.5682 62.2081 34.3977 62.4425 34.1719C62.6769 33.9418 62.858 33.6562 62.9858 33.3153L64.4432 33.7244C64.2898 34.2188 64.032 34.6534 63.6698 35.0284C63.3075 35.3991 62.8601 35.6889 62.3274 35.8977C61.7948 36.1023 61.196 36.2045 60.5313 36.2045ZM72.6734 39.6818C72.4178 39.6818 72.1898 39.6605 71.9895 39.6179C71.7892 39.5795 71.6507 39.5412 71.574 39.5028L71.9575 38.1733C72.324 38.267 72.6479 38.3011 72.9291 38.2756C73.2104 38.25 73.4597 38.1243 73.677 37.8984C73.8986 37.6768 74.101 37.3168 74.2842 36.8182L74.5655 36.0511L70.9348 26.1818H72.5712L75.2814 34.0057H75.3837L78.0939 26.1818H79.7303L75.5626 37.4318C75.3751 37.9389 75.1429 38.3587 74.8659 38.6911C74.5889 39.0277 74.2672 39.277 73.9007 39.4389C73.5385 39.6009 73.1294 39.6818 72.6734 39.6818ZM85.2325 36.2045C84.3461 36.2045 83.5684 35.9936 82.8994 35.5717C82.2346 35.1499 81.7147 34.5597 81.3397 33.8011C80.969 33.0426 80.7836 32.1562 80.7836 31.142C80.7836 30.1193 80.969 29.2266 81.3397 28.4638C81.7147 27.701 82.2346 27.1087 82.8994 26.6868C83.5684 26.2649 84.3461 26.054 85.2325 26.054C86.1188 26.054 86.8944 26.2649 87.5592 26.6868C88.2282 27.1087 88.7481 27.701 89.1188 28.4638C89.4938 29.2266 89.6813 30.1193 89.6813 31.142C89.6813 32.1562 89.4938 33.0426 89.1188 33.8011C88.7481 34.5597 88.2282 35.1499 87.5592 35.5717C86.8944 35.9936 86.1188 36.2045 85.2325 36.2045ZM85.2325 34.8494C85.9058 34.8494 86.4597 34.6768 86.8944 34.3317C87.329 33.9865 87.6508 33.5327 87.8596 32.9702C88.0684 32.4077 88.1728 31.7983 88.1728 31.142C88.1728 30.4858 88.0684 29.8743 87.8596 29.3075C87.6508 28.7408 87.329 28.2827 86.8944 27.9332C86.4597 27.5838 85.9058 27.4091 85.2325 27.4091C84.5592 27.4091 84.0052 27.5838 83.5705 27.9332C83.1359 28.2827 82.8141 28.7408 82.6053 29.3075C82.3965 29.8743 82.2921 30.4858 82.2921 31.142C82.2921 31.7983 82.3965 32.4077 82.6053 32.9702C82.8141 33.5327 83.1359 33.9865 83.5705 34.3317C84.0052 34.6768 84.5592 34.8494 85.2325 34.8494ZM98.0456 31.9858V26.1818H99.5541V36H98.0456V34.3381H97.9433C97.7132 34.8366 97.3552 35.2607 96.8694 35.6101C96.3836 35.9553 95.77 36.1278 95.0285 36.1278C94.4149 36.1278 93.8694 35.9936 93.3921 35.7251C92.9149 35.4524 92.5399 35.0433 92.2671 34.4979C91.9944 33.9482 91.8581 33.2557 91.8581 32.4205V26.1818H93.3666V32.3182C93.3666 33.0341 93.5669 33.6051 93.9674 34.0312C94.3723 34.4574 94.8879 34.6705 95.5143 34.6705C95.8893 34.6705 96.2707 34.5746 96.6585 34.3828C97.0505 34.1911 97.3786 33.897 97.6429 33.5007C97.9113 33.1044 98.0456 32.5994 98.0456 31.9858ZM102.191 36V26.1818H103.648V27.6648H103.751C103.93 27.179 104.254 26.7848 104.722 26.4822C105.191 26.1797 105.719 26.0284 106.308 26.0284C106.418 26.0284 106.557 26.0305 106.723 26.0348C106.889 26.0391 107.015 26.0455 107.1 26.054V27.5881C107.049 27.5753 106.932 27.5561 106.749 27.5305C106.57 27.5007 106.38 27.4858 106.18 27.4858C105.702 27.4858 105.276 27.5859 104.901 27.7862C104.531 27.9822 104.236 28.255 104.019 28.6044C103.806 28.9496 103.7 29.3437 103.7 29.7869V36H102.191ZM117.815 36.2045C116.869 36.2045 116.053 35.9957 115.367 35.5781C114.685 35.1562 114.159 34.5682 113.788 33.8139C113.422 33.0554 113.239 32.1733 113.239 31.1676C113.239 30.1619 113.422 29.2756 113.788 28.5085C114.159 27.7372 114.675 27.1364 115.335 26.706C116 26.2713 116.776 26.054 117.662 26.054C118.173 26.054 118.678 26.1392 119.177 26.3097C119.675 26.4801 120.129 26.7571 120.538 27.1406C120.947 27.5199 121.273 28.0227 121.516 28.6491C121.759 29.2756 121.881 30.0469 121.881 30.9631V31.6023H114.312V30.2983H120.347C120.347 29.7443 120.236 29.25 120.014 28.8153C119.797 28.3807 119.486 28.0376 119.081 27.7862C118.68 27.5348 118.207 27.4091 117.662 27.4091C117.061 27.4091 116.541 27.5582 116.102 27.8565C115.668 28.1506 115.333 28.5341 115.099 29.0071C114.864 29.4801 114.747 29.9872 114.747 30.5284V31.3977C114.747 32.1392 114.875 32.7678 115.131 33.2834C115.391 33.7947 115.751 34.1847 116.211 34.4531C116.671 34.7173 117.206 34.8494 117.815 34.8494C118.212 34.8494 118.57 34.794 118.889 34.6832C119.213 34.5682 119.492 34.3977 119.727 34.1719C119.961 33.9418 120.142 33.6562 120.27 33.3153L121.727 33.7244C121.574 34.2188 121.316 34.6534 120.954 35.0284C120.592 35.3991 120.144 35.6889 119.611 35.8977C119.079 36.1023 118.48 36.2045 117.815 36.2045ZM124.049 36V26.1818H125.507V27.7159H125.635C125.839 27.1918 126.169 26.7848 126.625 26.495C127.081 26.201 127.629 26.054 128.268 26.054C128.916 26.054 129.455 26.201 129.885 26.495C130.32 26.7848 130.659 27.1918 130.902 27.7159H131.004C131.255 27.2088 131.632 26.8061 132.135 26.5078C132.638 26.2053 133.241 26.054 133.944 26.054C134.822 26.054 135.54 26.3288 136.098 26.8786C136.657 27.424 136.936 28.2741 136.936 29.429V36H135.427V29.429C135.427 28.7045 135.229 28.1868 134.833 27.8757C134.436 27.5646 133.97 27.4091 133.433 27.4091C132.743 27.4091 132.208 27.6179 131.828 28.0355C131.449 28.4489 131.26 28.973 131.26 29.608V36H129.726V29.2756C129.726 28.7173 129.544 28.2678 129.182 27.9268C128.82 27.5817 128.353 27.4091 127.782 27.4091C127.39 27.4091 127.024 27.5135 126.683 27.7223C126.346 27.9311 126.074 28.2209 125.865 28.5916C125.66 28.9581 125.558 29.3821 125.558 29.8636V36H124.049ZM142.457 36.2301C141.835 36.2301 141.27 36.1129 140.763 35.8786C140.256 35.6399 139.853 35.2969 139.555 34.8494C139.257 34.3977 139.108 33.8523 139.108 33.2131C139.108 32.6506 139.218 32.1946 139.44 31.8452C139.662 31.4915 139.958 31.2145 140.329 31.0142C140.699 30.8139 141.108 30.6648 141.556 30.5668C142.008 30.4645 142.461 30.3835 142.917 30.3239C143.514 30.2472 143.998 30.1896 144.368 30.1513C144.743 30.1087 145.016 30.0384 145.187 29.9403C145.361 29.8423 145.449 29.6719 145.449 29.429V29.3778C145.449 28.7472 145.276 28.2571 144.931 27.9077C144.59 27.5582 144.072 27.3835 143.378 27.3835C142.657 27.3835 142.093 27.5412 141.684 27.8565C141.275 28.1719 140.987 28.5085 140.821 28.8665L139.389 28.3551C139.645 27.7585 139.986 27.294 140.412 26.9616C140.842 26.625 141.311 26.3906 141.818 26.2585C142.329 26.1222 142.832 26.054 143.326 26.054C143.642 26.054 144.004 26.0923 144.413 26.169C144.826 26.2415 145.225 26.3928 145.608 26.6229C145.996 26.853 146.318 27.2003 146.574 27.6648C146.829 28.1293 146.957 28.7514 146.957 29.5312V36H145.449V34.6705H145.372C145.27 34.8835 145.099 35.1115 144.861 35.3544C144.622 35.5973 144.304 35.804 143.908 35.9744C143.512 36.1449 143.028 36.2301 142.457 36.2301ZM142.687 34.875C143.284 34.875 143.787 34.7578 144.196 34.5234C144.609 34.2891 144.92 33.9865 145.129 33.6158C145.342 33.245 145.449 32.8551 145.449 32.446V31.0653C145.385 31.142 145.244 31.2124 145.027 31.2763C144.814 31.3359 144.566 31.3892 144.285 31.4361C144.008 31.4787 143.738 31.517 143.473 31.5511C143.213 31.581 143.003 31.6065 142.841 31.6278C142.449 31.679 142.082 31.7621 141.741 31.8771C141.405 31.9879 141.132 32.1562 140.923 32.3821C140.718 32.6037 140.616 32.9062 140.616 33.2898C140.616 33.8139 140.81 34.2102 141.198 34.4787C141.59 34.7429 142.086 34.875 142.687 34.875ZM149.584 36V26.1818H151.093V36H149.584ZM150.352 24.5455C150.057 24.5455 149.804 24.4453 149.591 24.245C149.382 24.0447 149.278 23.804 149.278 23.5227C149.278 23.2415 149.382 23.0007 149.591 22.8004C149.804 22.6001 150.057 22.5 150.352 22.5C150.646 22.5 150.897 22.6001 151.106 22.8004C151.319 23.0007 151.425 23.2415 151.425 23.5227C151.425 23.804 151.319 24.0447 151.106 24.245C150.897 24.4453 150.646 24.5455 150.352 24.5455ZM155.238 22.9091V36H153.73V22.9091H155.238ZM165.701 36.2301C165.079 36.2301 164.514 36.1129 164.007 35.8786C163.5 35.6399 163.097 35.2969 162.799 34.8494C162.501 34.3977 162.352 33.8523 162.352 33.2131C162.352 32.6506 162.463 32.1946 162.684 31.8452C162.906 31.4915 163.202 31.2145 163.573 31.0142C163.943 30.8139 164.352 30.6648 164.8 30.5668C165.252 30.4645 165.705 30.3835 166.161 30.3239C166.758 30.2472 167.242 30.1896 167.612 30.1513C167.987 30.1087 168.26 30.0384 168.431 29.9403C168.605 29.8423 168.693 29.6719 168.693 29.429V29.3778C168.693 28.7472 168.52 28.2571 168.175 27.9077C167.834 27.5582 167.316 27.3835 166.622 27.3835C165.901 27.3835 165.337 27.5412 164.928 27.8565C164.519 28.1719 164.231 28.5085 164.065 28.8665L162.633 28.3551C162.889 27.7585 163.23 27.294 163.656 26.9616C164.086 26.625 164.555 26.3906 165.062 26.2585C165.573 26.1222 166.076 26.054 166.57 26.054C166.886 26.054 167.248 26.0923 167.657 26.169C168.07 26.2415 168.469 26.3928 168.852 26.6229C169.24 26.853 169.562 27.2003 169.818 27.6648C170.073 28.1293 170.201 28.7514 170.201 29.5312V36H168.693V34.6705H168.616C168.514 34.8835 168.343 35.1115 168.105 35.3544C167.866 35.5973 167.548 35.804 167.152 35.9744C166.756 36.1449 166.272 36.2301 165.701 36.2301ZM165.931 34.875C166.528 34.875 167.031 34.7578 167.44 34.5234C167.853 34.2891 168.164 33.9865 168.373 33.6158C168.586 33.245 168.693 32.8551 168.693 32.446V31.0653C168.629 31.142 168.488 31.2124 168.271 31.2763C168.058 31.3359 167.811 31.3892 167.529 31.4361C167.252 31.4787 166.982 31.517 166.717 31.5511C166.458 31.581 166.247 31.6065 166.085 31.6278C165.693 31.679 165.326 31.7621 164.985 31.8771C164.649 31.9879 164.376 32.1562 164.167 32.3821C163.963 32.6037 163.86 32.9062 163.86 33.2898C163.86 33.8139 164.054 34.2102 164.442 34.4787C164.834 34.7429 165.33 34.875 165.931 34.875ZM176.536 36.2045C175.718 36.2045 174.995 35.9979 174.369 35.5845C173.743 35.1669 173.253 34.5788 172.899 33.8203C172.545 33.0575 172.368 32.1562 172.368 31.1165C172.368 30.0852 172.545 29.1903 172.899 28.4318C173.253 27.6733 173.745 27.0874 174.375 26.674C175.006 26.2607 175.735 26.054 176.561 26.054C177.201 26.054 177.706 26.1605 178.076 26.3736C178.451 26.5824 178.737 26.821 178.933 27.0895C179.133 27.3537 179.289 27.571 179.4 27.7415H179.527V22.9091H181.036V36H179.579V34.4915H179.4C179.289 34.6705 179.131 34.8963 178.927 35.169C178.722 35.4375 178.43 35.6783 178.051 35.8913C177.672 36.1001 177.167 36.2045 176.536 36.2045ZM176.74 34.8494C177.346 34.8494 177.857 34.6918 178.275 34.3764C178.692 34.0568 179.01 33.6158 179.227 33.0533C179.444 32.4865 179.553 31.8324 179.553 31.0909C179.553 30.358 179.446 29.7166 179.233 29.1669C179.02 28.6129 178.705 28.1825 178.287 27.8757C177.87 27.5646 177.354 27.4091 176.74 27.4091C176.101 27.4091 175.569 27.5732 175.142 27.9013C174.721 28.2251 174.403 28.6662 174.19 29.2244C173.981 29.7784 173.877 30.4006 173.877 31.0909C173.877 31.7898 173.983 32.4247 174.196 32.9957C174.414 33.5625 174.733 34.0142 175.155 34.3509C175.581 34.6832 176.11 34.8494 176.74 34.8494ZM187.59 36.2045C186.771 36.2045 186.049 35.9979 185.423 35.5845C184.796 35.1669 184.306 34.5788 183.953 33.8203C183.599 33.0575 183.422 32.1562 183.422 31.1165C183.422 30.0852 183.599 29.1903 183.953 28.4318C184.306 27.6733 184.798 27.0874 185.429 26.674C186.06 26.2607 186.788 26.054 187.615 26.054C188.254 26.054 188.759 26.1605 189.13 26.3736C189.505 26.5824 189.791 26.821 189.987 27.0895C190.187 27.3537 190.342 27.571 190.453 27.7415H190.581V22.9091H192.09V36H190.632V34.4915H190.453C190.342 34.6705 190.185 34.8963 189.98 35.169C189.776 35.4375 189.484 35.6783 189.105 35.8913C188.725 36.1001 188.22 36.2045 187.59 36.2045ZM187.794 34.8494C188.399 34.8494 188.911 34.6918 189.328 34.3764C189.746 34.0568 190.063 33.6158 190.281 33.0533C190.498 32.4865 190.607 31.8324 190.607 31.0909C190.607 30.358 190.5 29.7166 190.287 29.1669C190.074 28.6129 189.759 28.1825 189.341 27.8757C188.923 27.5646 188.408 27.4091 187.794 27.4091C187.155 27.4091 186.622 27.5732 186.196 27.9013C185.774 28.2251 185.457 28.6662 185.244 29.2244C185.035 29.7784 184.931 30.4006 184.931 31.0909C184.931 31.7898 185.037 32.4247 185.25 32.9957C185.467 33.5625 185.787 34.0142 186.209 34.3509C186.635 34.6832 187.163 34.8494 187.794 34.8494ZM194.936 36V26.1818H196.393V27.6648H196.496C196.675 27.179 196.998 26.7848 197.467 26.4822C197.936 26.1797 198.464 26.0284 199.052 26.0284C199.163 26.0284 199.302 26.0305 199.468 26.0348C199.634 26.0391 199.76 26.0455 199.845 26.054V27.5881C199.794 27.5753 199.677 27.5561 199.493 27.5305C199.314 27.5007 199.125 27.4858 198.925 27.4858C198.447 27.4858 198.021 27.5859 197.646 27.7862C197.275 27.9822 196.981 28.255 196.764 28.6044C196.551 28.9496 196.444 29.3437 196.444 29.7869V36H194.936ZM205.325 36.2045C204.379 36.2045 203.563 35.9957 202.877 35.5781C202.195 35.1562 201.669 34.5682 201.298 33.8139C200.931 33.0554 200.748 32.1733 200.748 31.1676C200.748 30.1619 200.931 29.2756 201.298 28.5085C201.669 27.7372 202.184 27.1364 202.845 26.706C203.509 26.2713 204.285 26.054 205.171 26.054C205.683 26.054 206.188 26.1392 206.686 26.3097C207.185 26.4801 207.639 26.7571 208.048 27.1406C208.457 27.5199 208.783 28.0227 209.026 28.6491C209.269 29.2756 209.39 30.0469 209.39 30.9631V31.6023H201.822V30.2983H207.856C207.856 29.7443 207.745 29.25 207.524 28.8153C207.306 28.3807 206.995 28.0376 206.59 27.7862C206.19 27.5348 205.717 27.4091 205.171 27.4091C204.571 27.4091 204.051 27.5582 203.612 27.8565C203.177 28.1506 202.843 28.5341 202.608 29.0071C202.374 29.4801 202.257 29.9872 202.257 30.5284V31.3977C202.257 32.1392 202.384 32.7678 202.64 33.2834C202.9 33.7947 203.26 34.1847 203.72 34.4531C204.181 34.7173 204.715 34.8494 205.325 34.8494C205.721 34.8494 206.079 34.794 206.399 34.6832C206.723 34.5682 207.002 34.3977 207.236 34.1719C207.47 33.9418 207.652 33.6562 207.779 33.3153L209.237 33.7244C209.083 34.2188 208.826 34.6534 208.463 35.0284C208.101 35.3991 207.654 35.6889 207.121 35.8977C206.588 36.1023 205.99 36.2045 205.325 36.2045ZM218.513 28.3807L217.158 28.7642C217.073 28.5384 216.947 28.3189 216.781 28.1058C216.619 27.8885 216.398 27.7095 216.116 27.5689C215.835 27.4283 215.475 27.358 215.036 27.358C214.435 27.358 213.935 27.4964 213.534 27.7734C213.138 28.0462 212.94 28.3935 212.94 28.8153C212.94 29.1903 213.076 29.4865 213.349 29.7038C213.621 29.9212 214.048 30.1023 214.627 30.2472L216.084 30.6051C216.962 30.8182 217.616 31.1442 218.047 31.5831C218.477 32.0178 218.692 32.5781 218.692 33.2642C218.692 33.8267 218.53 34.3295 218.207 34.7727C217.887 35.2159 217.44 35.5653 216.864 35.821C216.289 36.0767 215.62 36.2045 214.857 36.2045C213.856 36.2045 213.027 35.9872 212.371 35.5526C211.714 35.1179 211.299 34.483 211.124 33.6477L212.556 33.2898C212.692 33.8182 212.95 34.2145 213.33 34.4787C213.713 34.7429 214.214 34.875 214.832 34.875C215.535 34.875 216.093 34.7259 216.506 34.4276C216.924 34.125 217.133 33.7628 217.133 33.3409C217.133 33 217.013 32.7145 216.775 32.4844C216.536 32.25 216.17 32.0753 215.675 31.9602L214.039 31.5767C213.14 31.3636 212.479 31.0334 212.057 30.5859C211.64 30.1342 211.431 29.5696 211.431 28.892C211.431 28.3381 211.587 27.848 211.898 27.4219C212.213 26.9957 212.641 26.6612 213.182 26.4183C213.728 26.1754 214.346 26.054 215.036 26.054C216.008 26.054 216.771 26.267 217.325 26.6932C217.883 27.1193 218.279 27.6818 218.513 28.3807ZM227.792 28.3807L226.437 28.7642C226.351 28.5384 226.226 28.3189 226.059 28.1058C225.898 27.8885 225.676 27.7095 225.395 27.5689C225.113 27.4283 224.753 27.358 224.314 27.358C223.714 27.358 223.213 27.4964 222.812 27.7734C222.416 28.0462 222.218 28.3935 222.218 28.8153C222.218 29.1903 222.354 29.4865 222.627 29.7038C222.9 29.9212 223.326 30.1023 223.905 30.2472L225.363 30.6051C226.241 30.8182 226.895 31.1442 227.325 31.5831C227.756 32.0178 227.971 32.5781 227.971 33.2642C227.971 33.8267 227.809 34.3295 227.485 34.7727C227.165 35.2159 226.718 35.5653 226.143 35.821C225.567 36.0767 224.898 36.2045 224.135 36.2045C223.134 36.2045 222.305 35.9872 221.649 35.5526C220.993 35.1179 220.577 34.483 220.403 33.6477L221.834 33.2898C221.971 33.8182 222.229 34.2145 222.608 34.4787C222.991 34.7429 223.492 34.875 224.11 34.875C224.813 34.875 225.371 34.7259 225.785 34.4276C226.202 34.125 226.411 33.7628 226.411 33.3409C226.411 33 226.292 32.7145 226.053 32.4844C225.814 32.25 225.448 32.0753 224.954 31.9602L223.317 31.5767C222.418 31.3636 221.758 31.0334 221.336 30.5859C220.918 30.1342 220.709 29.5696 220.709 28.892C220.709 28.3381 220.865 27.848 221.176 27.4219C221.491 26.9957 221.92 26.6612 222.461 26.4183C223.006 26.1754 223.624 26.054 224.314 26.054C225.286 26.054 226.049 26.267 226.603 26.6932C227.161 27.1193 227.557 27.6818 227.792 28.3807Z" fill="black" fill-opacity="0.37"/>
<rect x="368" y="4" width="133" height="50" rx="8" fill="#257CFF"/>
<path d="M396.298 27.0447C396.174 26.657 396.008 26.3097 395.799 26.0028C395.594 25.6918 395.349 25.4276 395.064 25.2102C394.778 24.9886 394.452 24.8203 394.086 24.7053C393.724 24.5902 393.325 24.5327 392.891 24.5327C392.153 24.5327 391.489 24.7223 390.896 25.1016C390.304 25.4808 389.835 26.0369 389.49 26.7699C389.149 27.4986 388.979 28.3913 388.979 29.4482C388.979 30.5092 389.151 31.4062 389.496 32.1392C389.842 32.8722 390.315 33.4283 390.915 33.8075C391.516 34.1868 392.2 34.3764 392.967 34.3764C393.679 34.3764 394.299 34.2315 394.827 33.9418C395.36 33.652 395.771 33.2429 396.061 32.7145C396.355 32.1818 396.502 31.5554 396.502 30.8352L397.013 30.9311H393.268V29.3011H398.413V30.7905C398.413 31.8899 398.179 32.8445 397.71 33.6541C397.246 34.4595 396.602 35.0817 395.78 35.5206C394.962 35.9595 394.024 36.179 392.967 36.179C391.783 36.179 390.743 35.9062 389.848 35.3608C388.957 34.8153 388.263 34.0419 387.764 33.0405C387.266 32.0348 387.016 30.8416 387.016 29.4609C387.016 28.4169 387.161 27.4794 387.451 26.6484C387.741 25.8175 388.148 25.1122 388.672 24.5327C389.2 23.9489 389.82 23.5036 390.532 23.1967C391.248 22.8857 392.03 22.7301 392.878 22.7301C393.585 22.7301 394.244 22.8345 394.853 23.0433C395.467 23.2521 396.012 23.5483 396.489 23.9318C396.971 24.3153 397.369 24.7713 397.685 25.2997C398 25.8239 398.213 26.4055 398.324 27.0447H396.298ZM404.819 36.1982C403.851 36.1982 403.018 35.9915 402.319 35.5781C401.625 35.1605 401.088 34.5746 400.709 33.8203C400.334 33.0618 400.146 32.1733 400.146 31.1548C400.146 30.1491 400.334 29.2628 400.709 28.4957C401.088 27.7287 401.616 27.13 402.294 26.6996C402.976 26.2692 403.773 26.054 404.685 26.054C405.239 26.054 405.775 26.1456 406.295 26.3288C406.815 26.5121 407.282 26.7997 407.695 27.1918C408.109 27.5838 408.435 28.093 408.673 28.7195C408.912 29.3416 409.031 30.098 409.031 30.9886V31.6662H401.226V30.2344H407.158C407.158 29.7315 407.056 29.2862 406.851 28.8984C406.647 28.5064 406.359 28.1974 405.989 27.9716C405.622 27.7457 405.192 27.6328 404.697 27.6328C404.16 27.6328 403.692 27.7649 403.291 28.0291C402.895 28.2891 402.588 28.63 402.371 29.0518C402.158 29.4695 402.051 29.9233 402.051 30.4134V31.532C402.051 32.1882 402.166 32.7464 402.396 33.2067C402.631 33.6669 402.957 34.0185 403.374 34.2614C403.792 34.5 404.28 34.6193 404.838 34.6193C405.2 34.6193 405.53 34.5682 405.829 34.4659C406.127 34.3594 406.385 34.2017 406.602 33.9929C406.819 33.7841 406.986 33.5263 407.101 33.2195L408.91 33.5455C408.765 34.0781 408.505 34.5447 408.13 34.9453C407.759 35.3416 407.292 35.6506 406.73 35.8722C406.172 36.0895 405.535 36.1982 404.819 36.1982ZM415.555 26.1818V27.7159H410.192V26.1818H415.555ZM411.63 23.8295H413.541V33.1172C413.541 33.4879 413.597 33.767 413.707 33.9545C413.818 34.1378 413.961 34.2635 414.136 34.3317C414.315 34.3956 414.509 34.4276 414.717 34.4276C414.871 34.4276 415.005 34.4169 415.12 34.3956C415.235 34.3743 415.325 34.3572 415.389 34.3445L415.734 35.9233C415.623 35.9659 415.465 36.0085 415.261 36.0511C415.056 36.098 414.801 36.1236 414.494 36.1278C413.991 36.1364 413.522 36.0469 413.087 35.8594C412.653 35.6719 412.301 35.3821 412.033 34.9901C411.764 34.598 411.63 34.1058 411.63 33.5135V23.8295ZM429.43 28.5788L427.698 28.8857C427.625 28.6641 427.51 28.4531 427.352 28.2528C427.199 28.0526 426.99 27.8885 426.726 27.7607C426.462 27.6328 426.132 27.5689 425.735 27.5689C425.194 27.5689 424.742 27.6903 424.38 27.9332C424.018 28.1719 423.837 28.4808 423.837 28.8601C423.837 29.1882 423.958 29.4524 424.201 29.6527C424.444 29.853 424.836 30.017 425.377 30.1449L426.937 30.5028C427.84 30.7116 428.514 31.0334 428.957 31.468C429.4 31.9027 429.622 32.4673 429.622 33.1619C429.622 33.75 429.451 34.2741 429.11 34.7344C428.774 35.1903 428.303 35.5483 427.698 35.8082C427.097 36.0682 426.4 36.1982 425.607 36.1982C424.508 36.1982 423.611 35.9638 422.916 35.495C422.222 35.022 421.796 34.3509 421.638 33.4815L423.485 33.2003C423.6 33.6818 423.837 34.0462 424.195 34.2933C424.553 34.5362 425.019 34.6577 425.595 34.6577C426.221 34.6577 426.722 34.5277 427.097 34.2678C427.472 34.0036 427.659 33.6818 427.659 33.3026C427.659 32.9957 427.544 32.7379 427.314 32.5291C427.088 32.3203 426.741 32.1626 426.272 32.0561L424.61 31.6918C423.694 31.483 423.017 31.1506 422.578 30.6946C422.143 30.2386 421.926 29.6612 421.926 28.9624C421.926 28.3828 422.088 27.8757 422.411 27.4411C422.735 27.0064 423.183 26.6676 423.754 26.4247C424.325 26.1776 424.979 26.054 425.716 26.054C426.777 26.054 427.612 26.2841 428.222 26.7443C428.831 27.2003 429.234 27.8118 429.43 28.5788ZM436.126 26.1818V27.7159H430.763V26.1818H436.126ZM432.201 23.8295H434.113V33.1172C434.113 33.4879 434.168 33.767 434.279 33.9545C434.39 34.1378 434.532 34.2635 434.707 34.3317C434.886 34.3956 435.08 34.4276 435.289 34.4276C435.442 34.4276 435.576 34.4169 435.691 34.3956C435.806 34.3743 435.896 34.3572 435.96 34.3445L436.305 35.9233C436.194 35.9659 436.037 36.0085 435.832 36.0511C435.628 36.098 435.372 36.1236 435.065 36.1278C434.562 36.1364 434.093 36.0469 433.659 35.8594C433.224 35.6719 432.873 35.3821 432.604 34.9901C432.336 34.598 432.201 34.1058 432.201 33.5135V23.8295ZM440.918 36.2173C440.295 36.2173 439.733 36.1023 439.23 35.8722C438.727 35.6378 438.329 35.299 438.035 34.8558C437.745 34.4126 437.6 33.8693 437.6 33.2259C437.6 32.6719 437.707 32.2159 437.92 31.858C438.133 31.5 438.42 31.2166 438.783 31.0078C439.145 30.799 439.55 30.6413 439.997 30.5348C440.445 30.4283 440.9 30.3473 441.365 30.2919C441.953 30.2237 442.43 30.1683 442.797 30.1257C443.163 30.0788 443.43 30.0043 443.596 29.902C443.762 29.7997 443.845 29.6335 443.845 29.4034V29.3587C443.845 28.8004 443.687 28.3679 443.372 28.0611C443.061 27.7543 442.596 27.6009 441.979 27.6009C441.335 27.6009 440.828 27.7436 440.457 28.0291C440.091 28.3104 439.837 28.6236 439.697 28.9688L437.9 28.5597C438.114 27.9631 438.425 27.4815 438.834 27.1151C439.247 26.7443 439.722 26.4759 440.259 26.3097C440.796 26.1392 441.361 26.054 441.953 26.054C442.345 26.054 442.761 26.1009 443.199 26.1946C443.643 26.2841 444.056 26.4503 444.44 26.6932C444.827 26.9361 445.145 27.2834 445.392 27.7351C445.639 28.1825 445.763 28.7642 445.763 29.4801V36H443.896V34.6577H443.82C443.696 34.9048 443.511 35.1477 443.263 35.3864C443.016 35.625 442.699 35.8232 442.311 35.9808C441.923 36.1385 441.459 36.2173 440.918 36.2173ZM441.333 34.6832C441.861 34.6832 442.313 34.5788 442.688 34.37C443.067 34.1612 443.355 33.8885 443.551 33.5518C443.751 33.2109 443.851 32.8466 443.851 32.4588V31.1932C443.783 31.2614 443.651 31.3253 443.455 31.3849C443.263 31.4403 443.044 31.4893 442.797 31.532C442.55 31.5703 442.309 31.6065 442.074 31.6406C441.84 31.6705 441.644 31.696 441.486 31.7173C441.116 31.7642 440.777 31.843 440.47 31.9538C440.168 32.0646 439.925 32.2244 439.741 32.4332C439.562 32.6378 439.473 32.9105 439.473 33.2514C439.473 33.7244 439.648 34.0824 439.997 34.3253C440.346 34.5639 440.792 34.6832 441.333 34.6832ZM448.128 36V26.1818H449.976V27.7415H450.078C450.257 27.2131 450.572 26.7976 451.024 26.495C451.48 26.1882 451.996 26.0348 452.571 26.0348C452.69 26.0348 452.831 26.0391 452.993 26.0476C453.159 26.0561 453.289 26.0668 453.383 26.0795V27.9077C453.306 27.8864 453.17 27.8629 452.973 27.8374C452.777 27.8075 452.581 27.7926 452.385 27.7926C451.934 27.7926 451.531 27.8885 451.177 28.0803C450.828 28.2678 450.551 28.5298 450.346 28.8665C450.142 29.1989 450.04 29.5781 450.04 30.0043V36H448.128ZM460.02 26.1818V27.7159H454.657V26.1818H460.02ZM456.095 23.8295H458.006V33.1172C458.006 33.4879 458.062 33.767 458.172 33.9545C458.283 34.1378 458.426 34.2635 458.601 34.3317C458.78 34.3956 458.974 34.4276 459.182 34.4276C459.336 34.4276 459.47 34.4169 459.585 34.3956C459.7 34.3743 459.79 34.3572 459.853 34.3445L460.199 35.9233C460.088 35.9659 459.93 36.0085 459.726 36.0511C459.521 36.098 459.265 36.1236 458.959 36.1278C458.456 36.1364 457.987 36.0469 457.552 35.8594C457.118 35.6719 456.766 35.3821 456.498 34.9901C456.229 34.598 456.095 34.1058 456.095 33.5135V23.8295ZM466.08 36.1982C465.113 36.1982 464.28 35.9915 463.581 35.5781C462.886 35.1605 462.349 34.5746 461.97 33.8203C461.595 33.0618 461.407 32.1733 461.407 31.1548C461.407 30.1491 461.595 29.2628 461.97 28.4957C462.349 27.7287 462.878 27.13 463.555 26.6996C464.237 26.2692 465.034 26.054 465.946 26.054C466.5 26.054 467.037 26.1456 467.556 26.3288C468.076 26.5121 468.543 26.7997 468.956 27.1918C469.37 27.5838 469.696 28.093 469.934 28.7195C470.173 29.3416 470.292 30.098 470.292 30.9886V31.6662H462.488V30.2344H468.419C468.419 29.7315 468.317 29.2862 468.113 28.8984C467.908 28.5064 467.62 28.1974 467.25 27.9716C466.883 27.7457 466.453 27.6328 465.958 27.6328C465.422 27.6328 464.953 27.7649 464.552 28.0291C464.156 28.2891 463.849 28.63 463.632 29.0518C463.419 29.4695 463.312 29.9233 463.312 30.4134V31.532C463.312 32.1882 463.427 32.7464 463.657 33.2067C463.892 33.6669 464.218 34.0185 464.635 34.2614C465.053 34.5 465.541 34.6193 466.099 34.6193C466.461 34.6193 466.792 34.5682 467.09 34.4659C467.388 34.3594 467.646 34.2017 467.863 33.9929C468.081 33.7841 468.247 33.5263 468.362 33.2195L470.171 33.5455C470.026 34.0781 469.766 34.5447 469.391 34.9453C469.02 35.3416 468.554 35.6506 467.991 35.8722C467.433 36.0895 466.796 36.1982 466.08 36.1982ZM475.908 36.1918C475.116 36.1918 474.408 35.9893 473.786 35.5845C473.168 35.1754 472.682 34.5937 472.329 33.8395C471.979 33.081 471.805 32.1712 471.805 31.1101C471.805 30.049 471.981 29.1413 472.335 28.3871C472.693 27.6328 473.183 27.0554 473.805 26.6548C474.427 26.2543 475.133 26.054 475.921 26.054C476.53 26.054 477.02 26.1562 477.391 26.3608C477.766 26.5611 478.056 26.7955 478.261 27.0639C478.469 27.3324 478.631 27.5689 478.746 27.7734H478.861V22.9091H480.773V36H478.906V34.4723H478.746C478.631 34.6811 478.465 34.9197 478.248 35.1882C478.035 35.4567 477.741 35.6911 477.366 35.8913C476.991 36.0916 476.505 36.1918 475.908 36.1918ZM476.33 34.5618C476.88 34.5618 477.344 34.4169 477.724 34.1271C478.107 33.8331 478.397 33.4261 478.593 32.9062C478.793 32.3864 478.893 31.7812 478.893 31.0909C478.893 30.4091 478.795 29.8125 478.599 29.3011C478.403 28.7898 478.116 28.3913 477.736 28.1058C477.357 27.8203 476.888 27.6776 476.33 27.6776C475.755 27.6776 475.275 27.8267 474.892 28.125C474.508 28.4233 474.219 28.8303 474.023 29.3459C473.831 29.8615 473.735 30.4432 473.735 31.0909C473.735 31.7472 473.833 32.3374 474.029 32.8615C474.225 33.3857 474.515 33.8011 474.898 34.108C475.286 34.4105 475.763 34.5618 476.33 34.5618Z" fill="white" fill-opacity="0.87"/>
</svg>
