<svg width="558" height="540" viewBox="0 0 558 540" fill="none" xmlns="http://www.w3.org/2000/svg">
<circle cx="270" cy="270" r="270" fill="#BBD6FF"/>
<g filter="url(#filter0_d_4_617)">
<path d="M292 158C292 153.582 295.582 150 300 150H518C522.418 150 526 153.582 526 158V356H292V158Z" fill="white"/>
<g clip-path="url(#clip0_4_617)">
<rect x="316" y="174" width="72" height="20" rx="10" fill="#F4F5F7"/>
<rect x="316" y="204" width="186" height="8" rx="4" fill="#F4F5F7"/>
<rect x="316" y="222" width="186" height="8" rx="4" fill="#F4F5F7"/>
<rect x="316" y="240" width="120" height="8" rx="4" fill="#F4F5F7"/>
</g>
<line x1="316" y1="271.5" x2="502" y2="271.5" stroke="#F4F5F7"/>
<g clip-path="url(#clip1_4_617)">
<g clip-path="url(#clip2_4_617)">
<rect x="316" y="298" width="88" height="8" rx="4" fill="#F4F5F7"/>
<rect x="430" y="296" width="72" height="12" rx="6" fill="#F4F5F7"/>
</g>
<g clip-path="url(#clip3_4_617)">
<rect x="316" y="322" width="88" height="8" rx="4" fill="#F4F5F7"/>
<rect x="430" y="320" width="72" height="12" rx="6" fill="#F4F5F7"/>
</g>
</g>
<path d="M292 356H526V383C526 387.418 522.418 391 518 391H300C295.582 391 292 387.418 292 383V356Z" fill="#474A57"/>
<rect x="308" y="368" width="158" height="11" rx="5.5" fill="#D9DBE1"/>
</g>
<defs>
<filter id="filter0_d_4_617" x="260" y="130" width="298" height="305" filterUnits="userSpaceOnUse" color-interpolation-filters="sRGB">
<feFlood flood-opacity="0" result="BackgroundImageFix"/>
<feColorMatrix in="SourceAlpha" type="matrix" values="0 0 0 0 0 0 0 0 0 0 0 0 0 0 0 0 0 0 127 0" result="hardAlpha"/>
<feOffset dy="12"/>
<feGaussianBlur stdDeviation="16"/>
<feColorMatrix type="matrix" values="0 0 0 0 0.109804 0 0 0 0 0.172549 0 0 0 0 0.25098 0 0 0 0.2 0"/>
<feBlend mode="normal" in2="BackgroundImageFix" result="effect1_dropShadow_4_617"/>
<feBlend mode="normal" in="SourceGraphic" in2="effect1_dropShadow_4_617" result="shape"/>
</filter>
<clipPath id="clip0_4_617">
<rect width="186" height="74" fill="white" transform="translate(316 174)"/>
</clipPath>
<clipPath id="clip1_4_617">
<rect width="186" height="36" fill="white" transform="translate(316 296)"/>
</clipPath>
<clipPath id="clip2_4_617">
<rect width="186" height="12" fill="white" transform="translate(316 296)"/>
</clipPath>
<clipPath id="clip3_4_617">
<rect width="186" height="12" fill="white" transform="translate(316 320)"/>
</clipPath>
</defs>
</svg>
