<svg width="327" height="357" viewBox="0 0 327 357" fill="none" xmlns="http://www.w3.org/2000/svg">
<path d="M150.11 188.075C155.733 192.229 162.647 194.679 170.123 194.679H234.074V226.377L274.612 194.679H292.101C310.953 194.679 326.236 179.104 326.236 159.89V35.5792C326.237 16.366 310.954 0.791016 292.101 0.791016H170.123C151.27 0.791016 135.987 16.366 135.987 35.5792V188.075H150.11Z" fill="#F7F3F1"/>
<path d="M292.165 0.791016H262.982C281.8 0.791016 297.054 16.3667 297.054 35.5792V159.89C297.054 179.104 281.8 194.679 262.983 194.679H245.527L234.248 203.515V226.377L274.71 194.679H292.165C310.982 194.679 326.236 179.104 326.236 159.89V35.5792C326.237 16.3667 310.982 0.791016 292.165 0.791016V0.791016Z" fill="#EFE7E3"/>
<path d="M204.96 143.643L208.48 146.551C214.061 151.161 221.025 153.677 228.205 153.677H278.178C282.915 153.677 286.729 149.644 286.504 144.759C286.293 140.183 286.513 98.5132 286.513 93.8154C286.513 89.1175 282.782 85.3081 278.178 85.3081L244.291 85.2037L248.44 75.1756C252.751 64.7554 252.054 52.8788 246.555 43.0581C243.574 38.3552 236.335 40.0857 236.194 45.8666C236.194 54.8596 232.976 63.5428 227.146 70.286L205.539 95.239H197.661V143.642H204.96V143.643Z" fill="#FFD36C"/>
<path d="M201.208 151.537H178.436C176.931 151.537 175.71 150.284 175.71 148.738V89.1196C175.71 87.5741 176.93 86.3203 178.436 86.3203H201.208C202.713 86.3203 203.934 87.5734 203.934 89.1196V148.738C203.933 150.283 202.713 151.537 201.208 151.537Z" fill="#8EE6F3"/>
<path d="M150.622 250.266V124.509C150.622 109.323 138.53 97.0117 123.613 97.0117H27.1043C12.1882 97.0117 0.0957031 109.323 0.0957031 124.509V222.768C0.0957031 237.955 12.1875 250.266 27.1043 250.266H80.1226V275.556L112.196 250.266H150.622Z" fill="#72D1FB"/>
<path d="M123.365 97.0117H84.7667C99.8202 97.0117 112.024 109.379 112.024 124.635V250.966H150.622V124.635C150.621 109.379 138.418 97.0117 123.365 97.0117Z" fill="#62A6FD"/>
<path d="M110.011 182.139H90.7202L92.8335 169.067H110.011C116.77 169.067 116.77 158.35 110.011 158.35H94.5661L97.4514 140.504C98.5538 133.685 88.2156 131.936 87.1125 138.756L83.945 158.35H71.3048L74.1901 140.504C75.2926 133.685 64.9558 131.935 63.8513 138.756L60.6837 158.35H39.6602C32.901 158.35 32.901 169.067 39.6602 169.067H58.9512L56.8378 182.139H39.6602C32.901 182.139 32.901 192.856 39.6602 192.856H55.1053L52.22 210.702C51.1287 217.449 61.4543 219.279 62.5588 212.45L65.7264 192.856H78.3665L75.4812 210.702C74.39 217.449 84.7156 219.279 85.8201 212.45L88.9876 192.856H110.011C116.77 192.856 116.77 182.139 110.011 182.139ZM80.0991 182.139H67.4596L69.573 169.067H82.2131L80.0991 182.139Z" fill="#F7F3F1"/>
<path d="M202.573 230.652H134.212C123.646 230.652 115.081 239.351 115.081 250.082V319.51C115.081 330.24 123.646 338.939 134.212 338.939H171.767V356.809L194.486 338.94H202.573C213.138 338.94 221.704 330.241 221.704 319.51V250.082C221.704 239.352 213.138 230.652 202.573 230.652Z" fill="#FA9084"/>
<path d="M202.481 230.652H172.873C183.489 230.652 192.095 239.351 192.095 250.082V319.51C192.095 330.241 183.489 338.94 172.873 338.94H171.528V356.809L194.356 338.94H202.481C213.097 338.94 221.704 330.241 221.704 319.51V250.082C221.704 239.352 213.097 230.652 202.481 230.652Z" fill="#FF6CB5"/>
<path d="M168.392 308.699C184.918 299.737 193.48 292.111 193.48 280.296C193.48 264 173.967 259.926 168.392 272.148C162.021 259.519 143.305 264.001 143.305 280.296C143.305 292.111 151.866 299.736 168.392 308.699Z" fill="#F7F3F1"/>
</svg>
