<svg width="345" height="354" viewBox="0 0 345 354" fill="none" xmlns="http://www.w3.org/2000/svg">
<path d="M182.537 175.478L98.6895 151.126C80.4896 145.841 70.0203 126.801 75.3061 108.601L99.6574 24.7539C104.943 6.55404 123.982 -3.91523 142.182 1.37057L226.03 25.7219C244.23 31.0077 254.699 50.0469 249.413 68.2468L225.062 152.094C219.776 170.294 200.737 180.763 182.537 175.478Z" fill="#F26666"/>
<path d="M226.03 25.7217L195.48 16.8496C210.853 23.8003 219.181 41.1684 214.339 57.841L189.885 142.041C185.002 158.854 168.431 169.086 151.581 166.487L182.537 175.478C200.737 180.763 219.776 170.294 225.062 152.094L249.414 68.2467C254.699 50.0468 244.23 31.0075 226.03 25.7217Z" fill="#DD5B5B"/>
<path d="M139.935 339.613L53.7425 353.555C35.0337 356.582 17.414 343.868 14.3877 325.159L0.445464 238.967C-2.58082 220.258 10.1328 202.639 28.8415 199.612L115.033 185.67C133.742 182.644 151.361 195.357 154.388 214.066L168.33 300.257C171.357 318.967 158.643 336.587 139.935 339.613Z" fill="#73E7E6"/>
<path d="M168.331 300.257L154.389 214.066C151.362 195.357 133.742 182.644 115.034 185.67L82.8301 190.879C100.056 190.258 115.452 202.538 118.276 219.994L132.366 307.104C134.887 322.691 126.594 337.522 113.013 343.967L139.934 339.612C158.643 336.586 171.357 318.966 168.331 300.257Z" fill="#65D1CB"/>
<path d="M310.232 344.586H222.92C203.968 344.586 188.604 329.223 188.604 310.271V222.958C188.604 204.006 203.968 188.643 222.92 188.643H310.232C329.185 188.643 344.548 204.006 344.548 222.958V310.271C344.548 329.223 329.185 344.586 310.232 344.586Z" fill="#FF9F40"/>
<path d="M310.232 188.643H282.272C297.573 192.275 308.957 206.017 308.957 222.428V310.801C308.957 327.211 297.573 340.954 282.272 344.586H310.232C329.184 344.586 344.548 329.223 344.548 310.271V222.958C344.548 204.006 329.184 188.643 310.232 188.643Z" fill="#F49138"/>
<path d="M158.93 125.328C158.142 125.328 157.305 125.205 156.508 124.974C153.767 124.177 151.179 122.072 151.975 119.33L166.668 68.7414L163.783 70.7846L163.747 70.8039C163.14 71.1386 162.427 71.3225 161.743 71.3225C161.425 71.3225 161.117 71.2824 160.852 71.2056C159.712 70.8744 158.813 70.0164 158.32 68.7898C157.879 67.6933 157.815 66.4107 158.146 65.2713C158.637 63.5808 160.043 62.0791 161.657 61.5156L174.183 54.9451C174.855 54.5745 175.53 54.3906 176.23 54.3906C176.659 54.3906 177.096 54.457 177.565 54.5932C180.03 55.3088 182.247 57.6077 181.532 60.0726L163.362 122.636C162.871 124.321 161.214 125.328 158.93 125.328Z" fill="white"/>
<path d="M69.8968 309.039C67.7119 309.039 65.2014 307.876 64.853 305.72L63.3284 296.296C61.9823 287.971 69.3665 280.496 76.5087 273.268C83.4442 266.248 89.9946 259.618 88.8579 252.589C88.2066 248.565 85.0877 244.503 79.5889 244.503C78.9279 244.503 78.2365 244.561 77.532 244.675C74.8763 245.104 72.7564 246.211 71.402 247.876C69.9079 249.713 69.3914 252.131 69.8657 255.063C70.23 257.319 68.31 260.023 64.4644 260.646C64.0475 260.713 63.6465 260.747 63.2704 260.747C60.4197 260.747 58.6663 258.84 58.0571 255.079C56.4068 244.876 64.0261 235.748 75.7807 233.846C77.1185 233.63 78.4716 233.521 79.8026 233.521C90.5567 233.521 98.8798 240.306 100.514 250.405C102.524 262.835 92.8549 272.249 85.0849 279.813C79.4693 285.281 74.6191 290.002 75.3229 294.356L75.8069 297.345L103.666 292.838C103.826 292.812 103.989 292.8 104.152 292.8C106.236 292.8 108.192 294.796 108.605 297.346C109.059 300.155 107.518 303.028 105.37 303.376L70.7852 308.97C70.5038 309.016 70.2045 309.039 69.8968 309.039Z" fill="white"/>
<path d="M266.231 303.59C259.101 303.59 253.18 301.536 249.107 297.649C245.715 294.411 243.77 290.004 243.77 285.558C243.77 281.811 245.27 280.417 249.304 280.417C253.711 280.417 255.428 281.721 255.428 285.066C255.428 288.973 258.799 292.916 266.329 292.916C274.177 292.916 277.525 289.48 277.525 281.425V279.555C277.525 272.816 273.831 269.54 266.231 269.54C263.728 269.54 262.173 267.684 262.173 264.695C262.173 261.646 263.728 259.752 266.231 259.752C271.947 259.752 275.754 258.032 275.754 249.638C275.754 243.12 272.939 240.213 266.625 240.213C258.754 240.213 257.102 244.215 257.102 247.571C257.102 250.851 255.207 252.515 251.47 252.515C246.662 252.515 245.345 251.325 245.345 246.981C245.345 240.539 249.848 229.638 266.723 229.638C280.321 229.638 287.215 235.771 287.215 247.867C287.215 255.369 284.631 261.347 280.23 264.216C286.224 267.063 289.38 272.338 289.38 279.554V281.424C289.38 289.703 286.373 303.59 266.231 303.59Z" fill="white"/>
</svg>
