<svg width="305" height="311" viewBox="0 0 305 311" fill="none" xmlns="http://www.w3.org/2000/svg">
<path d="M167.98 166.188H156.396V270.452H167.98V166.188Z" fill="#424A60"/>
<path d="M270.548 42.8479L262.356 34.6562L175.471 121.541L183.663 129.733L270.548 42.8479Z" fill="#424A60"/>
<path d="M154.699 158.698L146.508 150.506L30.6611 266.353L38.8528 274.544L154.699 158.698Z" fill="#424A60"/>
<path d="M143.113 115.752L79.3984 52.0371L71.2068 60.2288L134.922 123.944L143.113 115.752Z" fill="#424A60"/>
<path d="M264.753 237.389L177.868 150.504L169.676 158.696L256.562 245.581L264.753 237.389Z" fill="#424A60"/>
<path d="M275.962 57.9245C291.958 57.9245 304.924 44.9576 304.924 28.9622C304.924 12.9668 291.958 0 275.962 0C259.967 0 247 12.9668 247 28.9622C247 44.9576 259.967 57.9245 275.962 57.9245Z" fill="#43B05C"/>
<path d="M162.189 311.001C178.184 311.001 191.151 298.034 191.151 282.038C191.151 266.043 178.184 253.076 162.189 253.076C146.193 253.076 133.227 266.043 133.227 282.038C133.227 298.034 146.193 311.001 162.189 311.001Z" fill="#7383BF"/>
<path d="M28.9622 299.415C44.9576 299.415 57.9245 286.448 57.9245 270.452C57.9245 254.457 44.9576 241.49 28.9622 241.49C12.9668 241.49 0 254.457 0 270.452C0 286.448 12.9668 299.415 28.9622 299.415Z" fill="#57D8AB"/>
<path d="M69.5093 67.7178C79.1066 67.7178 86.8867 59.9377 86.8867 50.3405C86.8867 40.7432 79.1066 32.9631 69.5093 32.9631C59.9121 32.9631 52.132 40.7432 52.132 50.3405C52.132 59.9377 59.9121 67.7178 69.5093 67.7178Z" fill="#D75A4A"/>
<path d="M254.867 253.075C264.465 253.075 272.245 245.295 272.245 235.698C272.245 226.1 264.465 218.32 254.867 218.32C245.27 218.32 237.49 226.1 237.49 235.698C237.49 245.295 245.27 253.075 254.867 253.075Z" fill="#EBBA16"/>
<path d="M162.189 183.567C184.582 183.567 202.736 165.413 202.736 143.02C202.736 120.626 184.582 102.473 162.189 102.473C139.795 102.473 121.642 120.626 121.642 143.02C121.642 165.413 139.795 183.567 162.189 183.567Z" fill="#4B6DAA"/>
</svg>
