<svg width="40" height="8" viewBox="0 0 40 8" fill="none" xmlns="http://www.w3.org/2000/svg">
<path d="M4 0L4.89806 2.76393H7.80423L5.45308 4.47214L6.35114 7.23607L4 5.52786L1.64886 7.23607L2.54692 4.47214L0.195774 2.76393H3.10194L4 0Z" fill="#FEC702"/>
<path d="M12 0L12.8981 2.76393H15.8042L13.4531 4.47214L14.3511 7.23607L12 5.52786L9.64886 7.23607L10.5469 4.47214L8.19577 2.76393H11.1019L12 0Z" fill="#FEC702"/>
<path d="M20 0L20.8981 2.76393H23.8042L21.4531 4.47214L22.3511 7.23607L20 5.52786L17.6489 7.23607L18.5469 4.47214L16.1958 2.76393H19.1019L20 0Z" fill="#FEC702"/>
<path d="M28 0L28.8981 2.76393H31.8042L29.4531 4.47214L30.3511 7.23607L28 5.52786L25.6489 7.23607L26.5469 4.47214L24.1958 2.76393H27.1019L28 0Z" fill="#FEC702"/>
<path d="M36 0L36.8981 2.76393H39.8042L37.4531 4.47214L38.3511 7.23607L36 5.52786L33.6489 7.23607L34.5469 4.47214L32.1958 2.76393H35.1019L36 0Z" fill="#C3CBE0"/>
</svg>
