<svg width="120" height="29" viewBox="0 0 120 29" fill="none" xmlns="http://www.w3.org/2000/svg">
<g clip-path="url(#clip0_4_571)">
<path d="M33.6123 0.261963C32.0523 0.261963 30.6222 1.09771 29.853 2.44359L20.0898 19.3647H12.8116V28.0478H22.6045C24.1535 28.0478 25.5847 27.2194 26.3585 25.8753L36.1041 8.94503H43.3626V0.261963H33.6123Z" fill="#7E889F"/>
<path d="M7.48248 28.0478L0 23.717L12.198 2.44359C12.9624 1.09771 14.3836 0.261963 15.9339 0.261963H25.6234V8.94503H18.4102L7.48248 28.0478Z" fill="#7E889F"/>
<path d="M0.985596 0.261963V9.19312C5.88608 9.19312 9.85524 5.19642 9.85524 0.261963H0.985596Z" fill="#7E889F"/>
<path d="M38.928 23.0857C41.3773 23.0857 43.3628 21.0864 43.3628 18.6201C43.3628 16.1538 41.3773 14.1545 38.928 14.1545C36.4786 14.1545 34.4931 16.1538 34.4931 18.6201C34.4931 21.0864 36.4786 23.0857 38.928 23.0857Z" fill="#7E889F"/>
<path d="M102.217 17.976C102.06 18.5565 101.798 19.0843 101.483 19.5594C101.169 20.0872 100.75 20.5095 100.226 20.8789C98.0763 22.5151 94.1974 22.6735 91.6814 20.2455C89.7944 18.4509 89.0605 15.1257 90.2137 12.3284C90.7903 10.9561 91.8911 9.58377 93.6209 8.79206C95.6126 7.89479 98.9149 8.1587 100.698 10.1116C101.903 11.4311 102.532 13.4368 102.375 15.7591C102.375 15.9702 102.322 16.1286 102.322 16.1286H93.0966C93.0966 16.8148 93.4112 17.3954 93.7781 17.8704C94.2498 18.5037 95.1933 19.0315 96.1369 19.0843C96.8706 19.1371 97.7094 18.9787 98.286 18.5565C98.7581 18.187 99.0725 17.712 99.2814 17.1315L102.217 17.976ZM98.9149 13.7535C98.9149 12.8034 98.286 11.9062 97.5522 11.5366C96.6086 11.0617 95.4031 11.1144 94.5644 11.5894C93.7781 12.0116 93.2015 12.8034 93.1491 13.8063C94.4595 13.8063 95.77 13.8063 97.0804 13.8063C97.7094 13.7535 98.286 13.7535 98.9149 13.7535Z" fill="#7E889F"/>
<path d="M56.824 8.73807V5.78233L59.969 4.83228V8.73807H62.5898V11.8522H59.969V17.2886C59.969 17.8692 60.0738 18.2386 60.3359 18.4497C60.598 18.6608 60.9649 18.7664 61.4891 18.7664C61.6988 18.7664 61.9085 18.7664 62.1181 18.7664C62.3278 18.7664 62.485 18.7136 62.5898 18.6608V21.5638C62.4327 21.6166 62.1705 21.7221 61.856 21.7749C61.5416 21.8277 61.1223 21.8805 60.598 21.8805C59.34 21.8805 58.344 21.511 57.6102 20.8249C56.8764 20.1388 56.5095 19.136 56.5095 17.8692V11.8522H54.2031V8.73807H56.824Z" fill="#7E889F"/>
<path d="M73.2305 12.2227C72.3918 12.1171 71.1861 11.8531 69.8233 12.9088C69.5088 13.1727 69.2991 13.5422 69.0894 14.0172C68.9322 14.4921 68.8273 15.0728 68.8273 15.759V21.6704H65.3154V8.73908H68.7226C68.7226 9.37244 68.7226 9.95303 68.7226 10.5865C68.8798 10.3753 69.037 10.1114 69.1943 9.90024C69.4564 9.63635 69.7184 9.42522 69.9806 9.21411C70.8192 8.68629 71.8151 8.58073 72.7587 8.63351C72.8636 8.63351 73.0208 8.63351 73.178 8.68629V12.2227H73.2305Z" fill="#7E889F"/>
<path d="M83.8192 8.73865H87.3311V21.7228H83.924V20.1394C83.5047 20.8255 82.9806 21.3005 82.2991 21.6172C80.7266 22.3561 78.6823 22.2506 77.3194 21.1949C76.009 20.1921 75.5897 18.5559 75.5897 16.9725V8.73865H79.1017V16.2863C79.1017 17.6586 79.8879 18.7671 81.3032 18.8199C82.037 18.8199 82.7185 18.6087 83.1902 18.0808C83.7143 17.553 83.8717 16.8669 83.8717 16.128C83.8192 16.2336 83.8192 8.73865 83.8192 8.73865Z" fill="#7E889F"/>
<path d="M109.242 11.7467V21.7223H105.731V11.7467H103.581V8.7382H105.731C105.731 7.41868 105.625 6.09915 106.254 4.88519C106.726 3.93513 107.512 3.19619 108.509 2.77395C109.085 2.56283 109.714 2.45728 110.447 2.45728C110.815 2.45728 111.181 2.45728 111.496 2.51005C111.81 2.56283 112.072 2.61561 112.178 2.72117V5.62412C112.072 5.57135 111.968 5.57135 111.81 5.51857C111.234 5.413 110.553 5.46578 110.028 5.78247C109.504 6.09916 109.294 6.67975 109.294 7.26033V8.68542H117.943V21.6695H114.484V11.7467H109.242Z" fill="#7E889F"/>
<path d="M118.31 4.41037C118.31 3.82977 118.048 3.24919 117.681 2.87972C117.314 2.51025 116.738 2.24634 116.161 2.24634C115.585 2.24634 115.008 2.51025 114.641 2.87972C114.274 3.24919 114.012 3.82977 114.012 4.41037C114.012 4.99095 114.274 5.57154 114.641 5.94101C115.008 6.31047 115.585 6.57437 116.161 6.57437C116.738 6.57437 117.314 6.31047 117.681 5.94101C118.048 5.57154 118.31 5.04373 118.31 4.41037Z" fill="#7E889F"/>
</g>
<defs>
<clipPath id="clip0_4_571">
<rect width="119.247" height="27.7858" fill="white" transform="translate(0 0.261963)"/>
</clipPath>
</defs>
</svg>
